<svg xmlns="http://www.w3.org/2000/svg" viewBox="3837 478.502 40.498 40.498">
  <defs>
    <style>
      .cls-1, .cls-4 {
        fill: none;
      }

      .cls-1, .cls-2 {
        stroke: #fff;
        stroke-width: 2px;
      }

      .cls-2 {
        fill: #fff;
      }

      .cls-3 {
        stroke: none;
      }
    </style>
  </defs>
  <g id="Group_25" data-name="Group 25" transform="translate(2651 194.502)">
    <path id="Path_120" data-name="Path 120" class="cls-1" d="M20.249,1A19.249,19.249,0,1,1,1,20.249,19.249,19.249,0,0,1,20.249,1Z" transform="translate(1186 284)"/>
    <g id="Ellipse_391" data-name="Ellipse 391" class="cls-2" transform="translate(1195.719 296.554)">
      <circle class="cls-3" cx="2.632" cy="2.632" r="2.632"/>
      <circle class="cls-4" cx="2.632" cy="2.632" r="1.632"/>
    </g>
    <g id="Ellipse_392" data-name="Ellipse 392" class="cls-2" transform="translate(1211.513 296.554)">
      <circle class="cls-3" cx="2.632" cy="2.632" r="2.632"/>
      <circle class="cls-4" cx="2.632" cy="2.632" r="1.632"/>
    </g>
    <path id="Path_37" data-name="Path 37" class="cls-1" d="M2998.509,308.224a6.805,6.805,0,0,1,3.031-2.74,12.225,12.225,0,0,1,4.893-.514" transform="translate(-1805.823 -12.446)"/>
    <path id="Path_38" data-name="Path 38" class="cls-1" d="M0,3.308A6.805,6.805,0,0,1,3.031.568,12.224,12.224,0,0,1,7.924.054" transform="matrix(0.799, 0.602, -0.602, 0.799, 1213.108, 290.419)"/>
    <line id="Line_49" data-name="Line 49" class="cls-1" y1="4" x2="16" transform="translate(1198.5 309.998)"/>
  </g>
</svg>
