<svg xmlns="http://www.w3.org/2000/svg" viewBox="3837 833.502 40.498 40.498">
  <defs>
    <style>
      .cls-1, .cls-4 {
        fill: none;
      }

      .cls-1, .cls-2 {
        stroke: #fff;
        stroke-width: 2px;
      }

      .cls-2 {
        fill: #fff;
      }

      .cls-3 {
        stroke: none;
      }
    </style>
  </defs>
  <g id="Group_24" data-name="Group 24" transform="translate(2651 549.502)">
    <g id="Ellipse_387" data-name="Ellipse 387" class="cls-1" transform="translate(1186 284)">
      <circle class="cls-3" cx="20.249" cy="20.249" r="20.249"/>
      <circle class="cls-4" cx="20.249" cy="20.249" r="19.249"/>
    </g>
    <g id="Ellipse_388" data-name="Ellipse 388" class="cls-2" transform="translate(1195.719 296.554)">
      <circle class="cls-3" cx="2.632" cy="2.632" r="2.632"/>
      <circle class="cls-4" cx="2.632" cy="2.632" r="1.632"/>
    </g>
    <g id="Ellipse_389" data-name="Ellipse 389" class="cls-2" transform="translate(1211.513 296.554)">
      <circle class="cls-3" cx="2.632" cy="2.632" r="2.632"/>
      <circle class="cls-4" cx="2.632" cy="2.632" r="1.632"/>
    </g>
    <path id="Path_33" data-name="Path 33" class="cls-1" d="M2998.509,308.224a6.805,6.805,0,0,1,3.031-2.74,12.225,12.225,0,0,1,4.893-.514" transform="translate(-1805.823 -12.446)"/>
    <path id="Path_34" data-name="Path 34" class="cls-1" d="M0,3.308A6.805,6.805,0,0,1,3.031.568,12.224,12.224,0,0,1,7.924.054" transform="matrix(0.799, 0.602, -0.602, 0.799, 1213.108, 290.419)"/>
    <path id="Path_36" data-name="Path 36" class="cls-1" d="M1210,349.764s1.009-6.849,9.555-6.849,9.516,6.849,9.516,6.849" transform="translate(-14.281 -35.056)"/>
  </g>
</svg>
