<svg xmlns="http://www.w3.org/2000/svg" viewBox="40 16 157.974 64.592">
  <defs>
    <style>
      .cls-1 {
        fill: #f2f2f3;
      }

      .cls-2 {
        fill: none;
        stroke: #fff;
        stroke-miterlimit: 10;
        stroke-width: 2px;
      }

      .cls-3 {
        fill: #fcb017;
      }
    </style>
  </defs>
  <g id="Group_48" data-name="Group 48" transform="translate(39.994 16)">
    <g id="Group_44" data-name="Group 44" transform="translate(37.515 15.374)">
      <path id="Path_106" data-name="Path 106" class="cls-1" d="M61.841,51.819h-14c-9.293,0-15.144-6.539-15.144-18.93,0-12.62,5.622-19.389,15.144-19.389,8.6,0,14,6.31,14,17.783,0,1.721-.115,2.983-.229,5.048H43.37c.574,3.442,2.065,4.933,5.048,4.933,4.015,0,9.522.115,13.423.115v10.44ZM52.318,28.988c-.115-4.015-1.606-6.2-4.474-6.2-2.524,0-4.13,1.95-4.589,6.2Z" transform="translate(-32.7 -13.385)"/>
      <path id="Path_107" data-name="Path 107" class="cls-1" d="M59.615,42.885v8.834l14.915.574c7.343,0,10.784-4.933,10.784-13.079,0-5.966-2.409-8.834-7.916-10.9-5.277-1.95-6.769-1.95-6.769-3.671,0-1.147.8-1.491,1.836-1.491H85.658V13.4H71.088C64.548,13.4,60.3,18.1,60.3,25.332c0,6.425,2.409,9.522,7.916,11.588,4.589,1.721,6.081,1.95,6.081,3.442,0,.918-.574,1.377-2.065,1.377L59.5,41.164A5.243,5.243,0,0,1,59.615,42.885Z" transform="translate(-28.753 -13.4)"/>
      <path id="Path_108" data-name="Path 108" class="cls-1" d="M94.914,18.319c2.868-3.212,5.622-4.819,9.063-4.819,7.228,0,10.9,5.622,10.9,18.7,0,13.767-5.392,19.5-11.473,19.5-4.474,0-6.081-1.721-8.49-4.819V62.6H83.9V13.5H94.914Zm0,18.815c1.262,2.18,2.524,3.327,4.7,3.327,2.753,0,4.36-2.524,4.36-8.26,0-5.048-1.491-7.228-4.13-7.228-1.95,0-3.557,1.262-4.933,3.557Z" transform="translate(-25.159 -13.385)"/>
      <path id="Path_109" data-name="Path 109" class="cls-1" d="M122.814,19.107c3.9-3.786,6.769-5.507,10.1-5.507,6.2,0,8.6,4.015,8.6,14V51.116H130.5V31.5c0-3.9-.574-5.048-2.753-5.048-1.836,0-3.442,1.377-4.933,3.442V51.116H111.8V14.174h11.014v4.933Z" transform="translate(-21.05 -13.371)"/>
    </g>
    <g id="Group_47" data-name="Group 47" transform="translate(0.006)">
      <g id="Group_46" data-name="Group 46">
        <g id="Group_45" data-name="Group 45" transform="translate(18.694 23.978)">
          <path id="Path_110" data-name="Path 110" class="cls-2" d="M16.3,20.9" transform="translate(-16.3 -20.9)"/>
        </g>
        <path id="Path_111" data-name="Path 111" class="cls-3" d="M35.68,13.538a6.543,6.543,0,0,0-1.262-2.524A7.714,7.714,0,0,0,29.025.574a7.269,7.269,0,0,0-6.769,1.95A6.361,6.361,0,0,0,17.323,0,5.971,5.971,0,0,0,11.7,4.015,7.564,7.564,0,0,0,1.72,15.144a5.6,5.6,0,0,0,4.015,7.8,5.793,5.793,0,0,0,4.933-1.377,4.51,4.51,0,0,0,2.753,3.786,4.6,4.6,0,0,0,4.7-.574,12.145,12.145,0,0,1,1.147-.8l1.836,1.147a40.406,40.406,0,0,0,7.8,3.557.919.919,0,0,0,1.147-1.147,31.215,31.215,0,0,1-1.147-4.7,7.607,7.607,0,0,0,6.2-3.786A8.374,8.374,0,0,0,35.68,13.538ZM21.339,16.291a6.231,6.231,0,0,1-3.9,1.377,7.886,7.886,0,0,1-2.753-.574,6.939,6.939,0,0,1-3.327-3.442v-.115a.421.421,0,0,0-.344.115h-.688a6.231,6.231,0,0,1-3.9-1.377.574.574,0,0,1,.688-.918A5.441,5.441,0,0,0,10.9,12.391a5.621,5.621,0,0,0,4.474-3.327.618.618,0,0,1,1.147.459,6.487,6.487,0,0,1-3.9,3.671,5.431,5.431,0,0,0,8.26,2.295.567.567,0,0,1,.8.115C21.568,15.832,21.568,16.177,21.339,16.291ZM29.6,9.637a6.3,6.3,0,0,1-3.671,1.147,6.23,6.23,0,0,1,.229,5.851,6.939,6.939,0,0,1-3.442,3.327h-.229a.631.631,0,0,1-.574-.344c-.115-.344,0-.574.344-.8a5.6,5.6,0,0,0,2.868-2.753,5.572,5.572,0,0,0-.574-5.507V10.44a7.966,7.966,0,0,1-1.491-.574A6.149,6.149,0,0,1,19.847,6.31a.544.544,0,1,1,1.033-.344,4.988,4.988,0,0,0,2.639,2.868,5.311,5.311,0,0,0,5.507-.459.567.567,0,0,1,.8.115C29.943,9.063,29.943,9.522,29.6,9.637Z" transform="translate(-0.006)"/>
      </g>
    </g>
  </g>
</svg>
